C:\Users\israe\Dropbox\PhDWork\ExperimentalData\subject14\055\P14S055W13_filtered35.mot
nRows=13
nColumns=28

name C:\Users\israe\Dropbox\PhDWork\ExperimentalData\subject14\055\P14S055W13_filtered35.mot
datacolumns 28
datarows 13
range 2.3920000000 2.4040000000
endheader
time	ground_force_1_vx	ground_force_1_vy	ground_force_1_vz	ground_force_1_px	ground_force_1_py	ground_force_1_pz	ground_moment_1_mx	ground_moment_1_my	ground_moment_1_mz	ground_force_2_vx	ground_force_2_vy	ground_force_2_vz	ground_force_2_px	ground_force_2_py	ground_force_2_pz	ground_moment_2_mx	ground_moment_2_my	ground_moment_2_mz	ground_force_3_vx	ground_force_3_vy	ground_force_3_vz	ground_force_3_px	ground_force_3_py	ground_force_3_pz	ground_moment_3_mx	ground_moment_3_my	ground_moment_3_mz
        2.3920000000	       19.9612754036	      205.1732029935	       15.1875311136	        0.1988394955	        0.0000558755	       -0.3004071329	       56.9698862751	       -4.8354988612	      -17.8804200178	        0.0000000000	        0.0000000000	        0.0000000000	        0.2029003516	       -0.0000795827	        0.4543649445	        0.0000000000	        0.0000000000	       -0.0000000000	       -0.0000000000	        0.0000000000	       -0.0000000000	        0.2076431971	        0.0000770316	        1.3583900146	       -0.0000000000	       -0.0000000000	        0.0000000000	
        2.3930000000	       19.9681839001	      204.4172330200	       15.2334886819	        0.1988394955	        0.0000558755	       -0.3004071329	       56.9470770595	       -4.8433747546	      -17.9067054301	        0.0000000000	        0.0000000000	        0.0000000000	        0.2029003516	       -0.0000795827	        0.4543649445	        0.0000000000	        0.0000000000	       -0.0000000000	       -0.0000000000	        0.0000000000	       -0.0000000000	        0.2076431971	        0.0000770316	        1.3583900146	       -0.0000000000	       -0.0000000000	        0.0000000000	
        2.3940000000	       19.9767510097	      203.6938543282	       15.2956535375	        0.1988394955	        0.0000558755	       -0.3004071329	       56.9231407376	       -4.8518827155	      -17.9283451328	        0.0000000000	        0.0000000000	        0.0000000000	        0.2029003516	       -0.0000795827	        0.4543649445	        0.0000000000	        0.0000000000	       -0.0000000000	       -0.0000000000	        0.0000000000	       -0.0000000000	        0.2076431971	        0.0000770316	        1.3583900146	       -0.0000000000	       -0.0000000000	        0.0000000000	
        2.3950000000	       19.9875930429	      202.9970070073	       15.3703581239	        0.1988394955	        0.0000558755	       -0.3004071329	       56.8974527094	       -4.8608411370	      -17.9461519911	        0.0000000000	        0.0000000000	       -0.0000000000	        0.2029003516	       -0.0000795827	        0.4543649445	        0.0000000000	        0.0000000000	       -0.0000000000	       -0.0000000000	        0.0000000000	       -0.0000000000	        0.2076431971	        0.0000770316	        1.3583900146	       -0.0000000000	       -0.0000000000	        0.0000000000	
        2.3960000000	       20.0013941033	      202.3218435228	       15.4536046129	        0.1988394955	        0.0000558755	       -0.3004071329	       56.8691389928	       -4.8700613043	      -17.9610859945	       -0.0000000000	        0.0000000000	       -0.0000000000	        0.2029003516	       -0.0000795827	        0.4543649445	       -0.0000000000	       -0.0000000000	        0.0000000000	       -0.0000000000	        0.0000000000	       -0.0000000000	        0.2076431971	        0.0000770316	        1.3583900146	       -0.0000000000	       -0.0000000000	        0.0000000000	
        2.3970000000	       20.0192915143	      201.6626387811	       15.5408036687	        0.1988394955	        0.0000558755	       -0.3004071329	       56.8374988921	       -4.8793698229	      -17.9739850295	       -0.0000000000	        0.0000000000	       -0.0000000000	        0.2029003516	       -0.0000795827	        0.4543649445	       -0.0000000000	       -0.0000000000	        0.0000000000	       -0.0000000000	        0.0000000000	       -0.0000000000	        0.2076431971	        0.0000770316	        1.3583900146	       -0.0000000000	       -0.0000000000	        0.0000000000	
        2.3980000000	       20.0427038949	      201.0107048360	       15.6268214550	        0.1988394955	        0.0000558755	       -0.3004071329	       56.8020121660	       -4.8885827283	      -17.9853991115	       -0.0000000000	        0.0000000000	       -0.0000000000	        0.2029003516	       -0.0000795827	        0.4543649445	       -0.0000000000	       -0.0000000000	        0.0000000000	       -0.0000000000	        0.0000000000	       -0.0000000000	        0.2076431971	        0.0000770316	        1.3583900146	       -0.0000000000	       -0.0000000000	        0.0000000000	
        2.3990000000	       20.0730062430	      200.3554184811	       15.7061657763	        0.1988394955	        0.0000558755	       -0.3004071329	       56.7621406323	       -4.8974591602	      -17.9957149560	       -0.0000000000	        0.0000000000	       -0.0000000000	        0.2029003516	       -0.0000795827	        0.4543649445	       -0.0000000000	       -0.0000000000	        0.0000000000	       -0.0000000000	        0.0000000000	       -0.0000000000	        0.2076431971	        0.0000770316	        1.3583900146	       -0.0000000000	       -0.0000000000	        0.0000000000	
        2.4000000000	       20.1114579590	      199.6862354494	       15.7730178170	        0.1988394955	        0.0000558755	       -0.3004071329	       56.7171993715	       -4.9056288545	      -18.0053786059	       -0.0000000000	        0.0000000000	       -0.0000000000	        0.2029003516	       -0.0000795827	        0.4543649445	       -0.0000000000	       -0.0000000000	        0.0000000000	       -0.0000000000	        0.0000000000	       -0.0000000000	        0.2076431971	        0.0000770316	        1.3583900146	       -0.0000000000	       -0.0000000000	        0.0000000000	
        2.4010000000	       20.1592504282	      198.9938287919	       15.8212065115	        0.1988394955	        0.0000558755	       -0.3004071329	       56.6664297808	       -4.9125486934	      -18.0149476747	       -0.0000000000	        0.0000000000	       -0.0000000000	        0.2029003516	       -0.0000795827	        0.4543649445	       -0.0000000000	       -0.0000000000	        0.0000000000	       -0.0000000000	        0.0000000000	       -0.0000000000	        0.2076431971	        0.0000770316	        1.3583900146	        0.0000000000	       -0.0000000000	        0.0000000000	
        2.4020000000	       20.2172553096	      198.2709204877	       15.8446108120	        0.1988394955	        0.0000558755	       -0.3004071329	       56.6092627210	       -4.9175578067	      -18.0248943155	       -0.0000000000	        0.0000000000	       -0.0000000000	        0.2029003516	       -0.0000795827	        0.4543649445	       -0.0000000000	       -0.0000000000	        0.0000000000	       -0.0000000000	        0.0000000000	        0.0000000000	        0.2076431971	        0.0000770316	        1.3583900146	        0.0000000000	       -0.0000000000	       -0.0000000000	
        2.4030000000	       20.2854355621	      197.5133693217	       15.8380886628	        0.1988394955	        0.0000558755	       -0.3004071329	       56.5454877691	       -4.9200411681	      -18.0353702498	       -0.0000000000	        0.0000000000	       -0.0000000000	        0.2029003516	       -0.0000795827	        0.4543649445	       -0.0000000000	       -0.0000000000	        0.0000000000	        0.0000000000	        0.0000000000	        0.0000000000	        0.2076431971	        0.0000770316	        1.3583900146	        0.0000000000	        0.0000000000	       -0.0000000000	
        2.4040000000	       20.3623265271	      196.7209147941	       15.7983534230	        0.1988394955	        0.0000558755	       -0.3004071329	       56.4752822784	       -4.9196446231	      -18.0461851153	       -0.0000000000	        0.0000000000	       -0.0000000000	        0.2029003516	       -0.0000795827	        0.4543649445	       -0.0000000000	       -0.0000000000	        0.0000000000	        0.0000000000	        0.0000000000	        0.0000000000	        0.2076431971	        0.0000770316	        1.3583900146	        0.0000000000	        0.0000000000	       -0.0000000000	
